<?xml version="1.0" encoding="UTF-8" standalone="no"?>
<!-- Created with Inkscape (http://www.inkscape.org/) -->

<svg
   width="1300mm"
   height="500mm"
   viewBox="0 0 1300 500"
   version="1.1"
   id="svg1"
   xml:space="preserve"
   xmlns="http://www.w3.org/2000/svg"
   xmlns:svg="http://www.w3.org/2000/svg"><defs
     id="defs1" /><g
     id="g3"
     transform="matrix(5.4306419,0,0,5.5708777,-401.79794,-1342.6236)"
     style="display:inline"><ellipse
       style="display:inline;fill:#0c2a44;fill-opacity:1;stroke:none;stroke-width:1.00009;stroke-dasharray:none;stroke-opacity:1"
       id="path2-3-9-96-5"
       cy="285.88379"
       cx="264.42715"
       ry="44.12001"
       rx="44.180717" /><path
       style="fill:#234463;fill-opacity:1;stroke:none;stroke-width:0.4;stroke-dasharray:none;stroke-opacity:1"
       d="m 248.62524,325.48175 -0.83687,-0.45194 -1.33533,-1.05833 -1.33532,-1.05833 -0.0106,-0.28461 -0.0106,-0.28461 -0.68823,-0.64143 -0.68823,-0.64144 -0.87671,-1.73453 -0.87671,-1.73454 -0.86961,-2.49879 -0.86961,-2.4988 -2.13784,-2.11667 -2.13784,-2.11666 -1.02342,-1.68724 -1.02342,-1.68723 -0.0841,-0.93687 -0.0841,-0.93687 0.42701,-0.89986 0.42701,-0.89985 -0.29604,-0.96456 -0.29603,-0.96456 0.50805,-0.86108 0.50805,-0.86108 -0.75393,-0.53685 -0.75393,-0.53684 -2.04289,-2.51408 -2.0429,-2.51408 h -0.45806 -0.45806 l -0.6745,-0.6251 -0.67451,-0.62511 -0.38528,-0.76395 -0.38529,-0.76396 -0.16367,-1.19063 -0.16367,-1.19062 -0.66408,-1.98438 -0.66407,-1.98437 0.12402,1.25659 0.12402,1.25659 0.14136,0.72778 0.14137,0.72779 -0.40848,-1.0542 -0.40848,-1.0542 -0.16363,-2.64996 -0.16363,-2.64997 -0.0272,-2.11667 -0.0272,-2.11667 0.72403,-1.7798 0.72403,-1.77979 0.41237,-1.99638 0.41236,-1.99638 0.50785,-1.18476 0.50785,-1.18476 h -0.15529 -0.15528 l 0.31975,-0.38529 0.31976,-0.38528 -0.16581,-0.26829 -0.16582,-0.2683 0.55414,-1.28812 0.55413,-1.28813 -0.0804,-0.27531 -0.0804,-0.27532 1.63861,-2.08246 1.63861,-2.08246 1.63496,-1.5875 1.63497,-1.5875 -0.40175,0.66146 -0.40176,0.66146 -0.18996,0.63405 -0.18997,0.63404 0.52858,-0.13822 0.52858,-0.13823 0.37925,0.44294 0.37925,0.44294 -0.106,0.31801 -0.10601,0.31801 h 0.26862 0.26862 l 0.58467,-0.82111 0.58468,-0.8211 -0.36822,-0.24393 -0.36823,-0.24393 1.05834,-0.9154 1.05833,-0.91541 0.17013,-0.004 0.17013,-0.004 0.16516,0.43041 0.16517,0.43041 -0.26685,0.32154 -0.26686,0.32154 0.1741,0.17409 0.17409,0.17409 h 0.48507 0.48507 v 0.18959 0.1896 l -0.44944,1.19947 -0.44944,1.19947 -0.27816,0.20404 -0.27817,0.20405 -0.87146,-0.15206 -0.87146,-0.15206 -0.55256,0.17538 -0.55256,0.17537 0.36349,0.22465 0.36349,0.22465 0.56165,-0.14096 0.56165,-0.14097 0.15196,0.39602 0.15197,0.39602 0.54535,-0.14261 0.54536,-0.14262 v -0.36601 -0.36602 h 0.2289 0.2289 l 0.71944,-0.56591 0.71944,-0.56592 -0.30223,-0.18678 -0.30222,-0.18679 0.17585,-0.70068 0.17586,-0.70068 0.20638,0.12755 0.20638,0.12755 0.31391,-0.37823 0.31391,-0.37824 0.38428,0.14747 0.38428,0.14746 -0.33292,0.43212 -0.33292,0.43212 0.54544,-0.46302 0.54544,-0.46302 h 0.3099 0.30989 v 0.40343 0.40342 l -0.65064,0.24737 -0.65064,0.24738 -0.56142,1.10047 -0.56142,1.10047 0.27363,0.27364 0.27364,0.27364 -0.26151,0.48863 -0.26151,0.48864 h 0.27778 0.27779 l 0.52321,-0.8599 0.52322,-0.8599 -0.26252,-0.0882 -0.26253,-0.0882 v -0.26783 -0.26784 l 0.56027,-0.78682 0.56027,-0.78682 0.60196,-0.22887 0.60196,-0.22886 0.5789,0.15138 0.57889,0.15139 -0.12885,0.49273 -0.12885,0.49273 h 0.63668 0.63669 v 0.39687 0.39688 l 0.19844,0.002 0.19844,0.002 0.41887,0.73661 0.41888,0.7366 -0.25121,0.563 -0.25122,0.56299 0.69223,0.74655 0.69224,0.74654 v 0.15643 0.15643 l -0.66681,0.35687 -0.6668,0.35686 -0.31215,-0.31215 -0.31216,-0.31216 h -0.2066 -0.20661 l 0.15955,1.16402 0.15954,1.16402 -0.60954,0.32622 -0.60955,0.32622 -0.94412,-1.09746 -0.94413,-1.09746 -0.48507,0.004 -0.48507,0.004 0.10892,-0.33073 0.10892,-0.33073 0.60838,-0.089 0.60838,-0.089 0.62767,-0.67726 0.62766,-0.67726 v -0.22595 -0.22595 h -0.23218 -0.23219 l -0.32696,0.39396 -0.32696,0.39396 -0.24745,-0.15293 -0.24745,-0.15294 0.30983,-0.37331 0.30983,-0.37332 h 0.3397 0.33971 l -0.13198,-0.50471 -0.13199,-0.5047 -0.55929,-0.14626 -0.5593,-0.14626 -0.0149,0.0557 -0.0149,0.0556 -0.5756,1.05833 -0.5756,1.05834 -0.79021,0.0814 -0.79022,0.0814 0.39509,0.94558 0.39509,0.94558 -0.28269,0.28268 -0.28268,0.28268 v -0.31088 -0.31089 l -0.85371,0.17074 -0.8537,0.17074 0.46293,-0.70652 0.46293,-0.70652 h -0.17094 -0.17093 l -1.68376,1.2015 -1.68376,1.20151 -0.26807,0.50089 -0.26807,0.50089 v 0.73429 0.73429 l 1.20014,1.10185 1.20015,1.10185 -0.30133,0.66133 -0.30132,0.66133 0.30508,0.57004 0.30508,0.57005 0.25131,-0.15532 0.25131,-0.15531 v -0.76252 -0.76253 l 0.27117,-0.16759 0.27117,-0.16759 0.88119,-1.76625 0.88119,-1.76625 0.17559,-0.72761 0.1756,-0.7276 h 0.741 0.74099 l 0.60415,0.69483 0.60414,0.69483 -0.27415,0.60169 -0.27415,0.60169 0.15869,0.15869 0.15869,0.15869 h 0.47192 0.47193 l 0.26125,-0.46303 0.26125,-0.46302 0.29102,0.28777 0.29102,0.28777 0.0712,1.22478 0.0712,1.22477 0.86416,1.20333 0.86417,1.20332 -0.28875,0.87492 -0.28875,0.87491 0.40087,1.13619 0.40087,1.13618 -0.59438,-0.18764 -0.59437,-0.18764 -0.72761,-0.13759 -0.7276,-0.13759 v -0.10751 -0.10752 l 0.68942,-1.09212 0.68942,-1.09211 -0.49098,0.21735 -0.49099,0.21734 -1.5875,0.15242 -1.5875,0.15242 0.48409,0.19822 0.4841,0.19822 -0.1529,0.72782 -0.15289,0.72783 0.24796,0.38635 0.24796,0.38636 0.51906,-0.46974 0.51905,-0.46974 0.17417,0.28182 0.17417,0.28182 -0.16585,0.26837 -0.16586,0.26836 -1.02984,0.52539 -1.02984,0.52538 h -0.25573 -0.25572 l -0.0856,-0.4018 -0.0855,-0.40181 -0.85533,0.60025 -0.85532,0.60024 -0.005,0.4917 -0.005,0.4917 -0.62236,-0.1562 -0.62237,-0.1562 -1.45848,2.04575 -1.45848,2.04575 -0.47971,0.75291 -0.47971,0.75292 -0.15142,1.73955 -0.15142,1.73955 -0.29018,0.0958 -0.29017,0.0958 -0.372,-1.39147 -0.372,-1.39147 -0.77085,-0.27071 -0.77085,-0.2707 -0.10612,0.31796 -0.10613,0.31797 -0.91488,-0.43628 -0.91488,-0.43627 -0.57995,0.57995 -0.57996,0.57996 -0.10477,1.85426 -0.10478,1.85427 0.43288,0.66065 0.43288,0.66065 h 0.53137 0.53137 l 0.15512,-0.40422 0.15511,-0.40423 0.52371,-0.28028 0.52371,-0.28028 -0.0918,1.66452 -0.0918,1.66452 0.66146,0.15174 0.66145,0.15173 0.54786,1.71252 0.54785,1.71253 0.86837,0.44291 0.86836,0.44292 0.38782,0.5537 0.38783,0.55369 0.24834,-0.15348 0.24835,-0.15349 0.15657,0.408 0.15656,0.408 1.32944,0.17635 1.32945,0.17636 1.42863,1.42864 1.42864,1.42863 0.23818,-0.1472 0.23817,-0.1472 0.95603,0.56407 0.95602,0.56407 0.3872,0.74877 0.38721,0.74877 0.003,0.34387 0.003,0.34387 1.5186,0.70131 1.5186,0.70131 0.98459,0.26745 0.98459,0.26745 0.7352,0.50954 0.7352,0.50954 0.46302,0.16704 0.46302,0.16704 v 0.92071 0.92072 l -0.64076,0.69139 -0.64075,0.69138 0.0269,1.37277 0.0269,1.37276 -0.45576,0.86855 -0.45576,0.86855 -0.24555,-0.15176 -0.24554,-0.15176 -0.80447,0.41601 -0.80448,0.41601 0.15323,0.6105 0.15322,0.61049 -0.58595,1.12417 -0.58595,1.12417 -0.32883,0.12619 -0.32883,0.12618 0.12724,0.48657 0.12724,0.48658 -0.52891,0.16787 -0.52892,0.16787 -0.14518,0.37833 -0.14517,0.37833 0.25302,0.15638 0.25303,0.15638 v 0.49119 0.49119 l 1.52136,1.47224 1.52135,1.47223 -0.39688,-0.006 -0.39687,-0.006 z m -13.28856,-28.70613 -0.29435,-0.29435 v 0.4057 0.40569 l 0.19292,0.19293 0.19293,0.19292 0.10142,-0.30427 0.10143,-0.30427 z m -10.34852,-15.13747 v -0.13229 h -0.13229 -0.13229 v 0.13229 0.13229 h 0.13229 0.13229 z m 1.32292,-11.64167 v -0.13229 h -0.13229 -0.13229 v 0.13229 0.1323 h 0.13229 0.13229 z m 13.49375,-11.5406 v -0.26458 l -0.26458,0.16352 -0.26459,0.16352 v 0.26458 0.26459 l 0.26459,-0.16353 0.26458,-0.16352 z m 1.32291,-1.95315 v -0.13229 h -0.13229 -0.13229 v 0.13229 0.1323 h 0.13229 0.13229 z m 35.85105,58.94859 -0.26459,-0.21109 -0.0631,-1.03412 -0.0631,-1.03413 -0.39993,-0.44192 -0.39993,-0.44191 v -0.94781 -0.94781 l -0.56531,-1.47726 -0.56532,-1.47726 0.69761,-1.05415 0.6976,-1.05416 v -0.73502 -0.73502 l -0.26043,-0.9081 -0.26044,-0.90809 -0.75884,-0.94427 -0.75883,-0.94427 0.11129,-1.58547 0.11129,-1.58548 -0.27859,0.39688 -0.27859,0.39687 -0.004,-0.33073 -0.004,-0.33073 h -0.62918 -0.62919 l -0.38753,-0.58365 -0.38754,-0.58366 -1.60956,0.48734 -1.60956,0.48733 -0.56993,-0.14904 -0.56994,-0.14904 -1.09033,0.38469 -1.09033,0.38469 -2.08268,-2.05756 -2.08269,-2.05755 -0.37626,-0.7118 -0.37626,-0.71179 0.10302,-2.29378 0.10301,-2.29377 1.00371,-1.71626 1.0037,-1.71625 0.61373,-0.23334 0.61372,-0.23334 1.0563,-1.63429 1.05629,-1.6343 v -0.75273 -0.75273 h -0.38756 -0.38757 l -0.27389,-0.51177 -0.27389,-0.51177 v -0.77807 -0.77808 l 0.16536,-0.82682 0.16537,-0.82682 h 1.68672 1.68671 v -0.77485 -0.77485 l -0.41577,-0.41578 -0.41577,-0.41577 h -0.24569 -0.24568 v -0.39688 -0.39687 h 0.40518 0.40518 l 0.15171,-0.39536 0.15171,-0.39535 0.23923,0.14785 0.23922,0.14785 0.5268,-0.1672 0.5268,-0.1672 v -0.20481 -0.20481 l -1.25677,0.20687 -1.25677,0.20686 -0.31816,0.0158 -0.31816,0.0158 0.0961,-0.75956 0.0961,-0.75956 0.3443,-0.55133 0.34431,-0.55132 -0.17701,-0.17701 -0.17701,-0.17701 -0.40829,0.15667 -0.40828,0.15668 v 0.64388 0.64388 l -0.82414,0.28729 -0.82415,0.2873 -0.2385,-0.1474 -0.23851,-0.14741 0.189,-0.30581 0.189,-0.30581 0.0138,-0.6681 0.0138,-0.66809 0.85989,-0.25315 0.8599,-0.25315 v -0.97276 -0.97276 l 0.5289,-0.13832 0.5289,-0.13831 0.13421,0.21715 0.1342,0.21715 -0.33238,0.134 -0.33237,0.134 0.46302,0.0209 0.46302,0.0209 v 0.56806 0.56806 l 0.92604,1.13011 0.92604,1.13011 v 0.4185 0.41849 h 0.13168 0.13168 l 1.29753,-0.93218 1.29753,-0.93218 -0.13373,-0.99703 -0.13373,-0.99703 0.41341,-0.3431 0.41341,-0.3431 0.17173,0.68422 0.17173,0.68422 -0.14412,0.37557 -0.14412,0.37557 0.40181,0.15418 0.4018,0.15419 h 1.04519 1.0452 l 0.93951,-0.39255 0.93952,-0.39256 -0.17529,-0.79807 -0.17528,-0.79807 h 0.41789 0.4179 v -0.17346 -0.17346 l -0.60069,-0.81873 -0.60069,-0.81872 -0.37592,-0.73856 -0.37593,-0.73857 0.47323,-0.80111 0.47323,-0.80111 -0.14666,-0.14666 -0.14666,-0.14666 -0.34466,0.13226 -0.34466,0.13226 -0.32547,1.2169 -0.32548,1.21691 0.29974,0.65784 0.29973,0.65785 -0.76549,1.53141 -0.76549,1.5314 -0.62975,0.0891 -0.62975,0.0891 0.15373,-0.61822 0.15373,-0.61823 -0.50188,-0.66146 -0.50189,-0.66146 -0.33178,0.33073 -0.33179,0.33073 h -0.59293 -0.59292 l -0.11739,-0.19844 -0.11738,-0.19843 -0.18477,-1.11677 -0.18477,-1.11677 0.73824,-0.68417 0.73823,-0.68417 1.33424,-2.03218 1.33424,-2.03217 0.89903,-0.59866 0.89902,-0.59865 h 0.75462 0.75462 v 0.26145 0.26146 l 1.08937,0.1742 1.08938,0.17419 1.31783,0.88684 1.31783,0.88684 0.23569,-0.14567 0.23569,-0.14566 -0.42437,-0.64766 -0.42436,-0.64766 h 0.418 0.41799 l 0.30619,0.57212 0.30619,0.57212 0.35738,-0.84996 0.35738,-0.84995 0.33793,0.042 0.33793,0.042 0.577,-0.18707 0.577,-0.18706 -0.15839,-0.41276 -0.15839,-0.41276 0.89156,0.17831 0.89155,0.17831 -0.68253,-0.73167 -0.68252,-0.73167 -0.30622,-0.59531 -0.30622,-0.59531 h 0.39056 0.39057 l 0.16397,0.2653 0.16396,0.2653 0.53506,-0.28636 0.53506,-0.28635 -0.44474,-0.49144 -0.44475,-0.49144 0.17354,-0.28079 0.17354,-0.28079 -0.4122,-0.5885 -0.41221,-0.58851 v -0.38331 -0.38332 l -0.46302,-0.52235 -0.46302,-0.52236 0.60078,0.31532 0.60078,0.31532 0.22607,-0.13971 0.22606,-0.13972 1.08909,0.78894 1.0891,0.78894 h 0.41478 0.41478 l -0.16352,-0.26459 -0.16352,-0.26458 h 0.22411 0.22411 l 2.10661,1.68629 2.10661,1.68629 2.03265,2.12857 2.03266,2.12857 1.42773,1.93983 1.42773,1.93982 1.28008,2.11667 1.28008,2.11667 0.87775,1.92371 0.87775,1.92372 0.12311,0.67891 0.12311,0.6789 0.27003,0.32537 0.27003,0.32537 0.82917,3.15743 0.82916,3.15742 0.0206,1.5875 0.0206,1.5875 -0.219,0.76707 -0.21901,0.76706 0.23702,-0.14533 0.23703,-0.14533 0.0796,2.6333 0.0796,2.6333 -0.19731,0.58143 -0.19731,0.58142 -0.18168,-0.79375 -0.18168,-0.79375 -0.0394,2.77812 -0.0394,2.77813 -0.32107,-0.52917 -0.32107,-0.52917 0.0658,-3.12526 0.0658,-3.12526 -0.26586,0.16432 -0.26586,0.16431 -0.009,-0.61093 -0.009,-0.61093 -0.477,-1.00791 -0.477,-1.00792 -0.71512,1.59352 -0.71513,1.59351 -0.25137,2.19253 -0.25136,2.19252 0.2904,0.88426 0.2904,0.88425 -0.26686,0.26686 -0.26685,0.26686 -0.17763,-0.55964 -0.17762,-0.55965 -0.22308,0.13788 -0.22309,0.13787 -0.56717,-2.44914 -0.56717,-2.44913 -0.25625,-0.98111 -0.25624,-0.98112 -0.35185,0.13502 -0.35184,0.13501 -0.3371,-0.81382 -0.33709,-0.81381 -0.40322,-0.22566 -0.40322,-0.22565 -0.88856,0.24534 -0.88855,0.24534 -0.20751,-0.12825 -0.20752,-0.12825 -0.34933,0.2159 -0.34932,0.21589 0.56039,0.5604 0.5604,0.56039 -0.006,0.46303 -0.006,0.46302 -0.50119,1.10385 -0.50118,1.10385 -0.67331,0.44117 -0.67332,0.44117 -0.14515,0.45734 -0.14515,0.45734 -1.58496,0.8915 -1.58495,0.8915 v 0.30318 0.30319 l 0.16346,0.16347 0.16347,0.16346 1.34212,-0.50996 1.34211,-0.50997 0.067,0.067 0.067,0.067 -0.25566,1.13783 -0.25565,1.13783 -0.63147,1.23625 -0.63146,1.23624 -1.51144,1.71979 -1.51144,1.71979 -0.49117,1.05834 -0.49117,1.05833 -0.006,0.67469 -0.006,0.67468 0.2624,0.2624 0.2624,0.2624 -0.32118,0.915 -0.32117,0.915 -2.0006,2.77812 -2.0006,2.77813 -0.72465,1.2478 -0.72464,1.24781 -0.854,0.63918 -0.854,0.63919 -0.87412,0.44226 -0.87412,0.44226 -1.24255,0.1308 -1.24254,0.13079 z m 13.18164,-27.64694 -0.74623,-1.05985 -0.45212,-0.8334 -0.45212,-0.8334 -0.7385,-1.11866 -0.73851,-1.11866 -0.18282,-0.006 -0.18282,-0.006 -0.13621,0.22039 -0.1362,0.22038 0.63759,0.93831 0.6376,0.9383 -0.14218,0.14218 -0.14218,0.14218 0.55122,0.55122 0.55121,0.55121 v 0.62906 0.62906 l 0.39688,0.32938 0.39687,0.32938 v 0.42068 0.42069 l 0.7276,0.58325 0.72761,0.58324 0.0848,-0.79673 0.0848,-0.79672 z m 5.3196,-4.74911 0.49137,-0.83183 -0.71627,0.17977 -0.71627,0.17978 -0.75025,-0.80315 -0.75026,-0.80315 h -0.29072 -0.29072 v 0.15762 0.15761 l 0.45392,0.76843 0.45392,0.76842 h 0.33983 0.33983 l 0.0313,0.33073 0.0313,0.33073 -0.0313,0.19844 -0.0313,0.19844 h 0.47212 0.47212 z m -15.47753,-2.53448 0.50807,-0.31729 0.74765,0.36962 0.74765,0.36962 0.92604,0.0645 0.92604,0.0645 1.10396,-0.0475 1.10396,-0.0476 0.31026,-0.94009 0.31026,-0.94009 -0.17033,-0.67863 -0.17032,-0.67863 -0.18556,0.18556 -0.18556,0.18556 v 0.30506 0.30506 l -0.52917,0.084 -0.52916,0.084 0.35897,-0.24573 0.35898,-0.24574 -0.28833,-0.17819 -0.28833,-0.1782 -0.9103,0.17077 -0.91031,0.17078 -0.79766,-1.10114 -0.79765,-1.10114 -0.11827,-0.31357 -0.11826,-0.31358 -0.40446,0.5272 -0.40447,0.5272 0.21938,0.39201 0.21938,0.39201 -0.25146,0.46985 -0.25146,0.46986 h -0.21042 -0.21042 l -0.8386,-1.16773 -0.83861,-1.16774 v -0.38933 -0.38934 l -0.65215,-0.42731 -0.65214,-0.4273 h -0.3301 -0.3301 l -0.56146,-0.70414 -0.56146,-0.70414 -0.32828,0.20289 -0.32827,0.20288 0.61521,0.65872 0.61521,0.65873 1.12448,0.66142 1.12448,0.66142 v 0.23944 0.23944 h -0.41249 -0.41249 l 0.16464,0.26639 0.16464,0.26639 -0.56375,0.79171 -0.56374,0.7917 -0.51132,-0.27365 -0.51132,-0.27365 v -0.3628 -0.36279 l 0.4993,0.13057 0.49931,0.13057 0.17112,-0.27687 0.17111,-0.27687 -0.33719,-0.53993 -0.33719,-0.53993 h -0.33247 -0.33247 l -1.0863,-0.98141 -1.0863,-0.98141 -0.78757,0.45201 -0.78758,0.452 -0.64043,-0.16074 -0.64043,-0.16073 v 0.55175 0.55175 l -0.66145,0.4334 -0.66146,0.4334 v 0.54783 0.54783 l -0.57529,0.61237 -0.57529,0.61236 h -0.59972 -0.59972 l -0.16352,0.26459 -0.16353,0.26458 0.61093,-0.003 0.61093,-0.003 1.45521,-0.39336 1.45521,-0.39335 1.62902,-0.26611 1.62903,-0.2661 0.36574,0.14035 0.36574,0.14034 0.0613,0.85299 0.0613,0.85298 0.44186,0.33073 0.44186,0.33073 h 0.57849 0.57849 l 0.33025,0.39793 0.33026,0.39793 0.82662,0.21896 0.82662,0.21895 0.19949,-0.5539 0.19949,-0.5539 z m 0.92311,-1.62528 0.14159,-0.2291 0.66777,0.12765 0.66777,0.12765 v 0.10145 0.10145 h -0.80936 -0.80937 z m -7.82863,-2.9459 -0.10093,-1.05834 0.40387,10e-4 0.40387,10e-4 0.0601,1.05696 0.0601,1.05696 h -0.36302 -0.36302 z m 19.99975,0.63315 0.41851,-0.1606 v -0.46846 -0.46846 l -0.37091,-0.30784 -0.37092,-0.30783 -0.17712,-0.71675 -0.17712,-0.71675 -0.68293,-0.71804 -0.68292,-0.71804 0.34662,-0.41765 0.34663,-0.41766 -0.32507,-0.31951 -0.32507,-0.31952 -0.52666,0.64473 -0.52667,0.64473 0.16744,0.67819 0.16745,0.67818 0.70454,0.74061 0.70454,0.7406 -0.0795,0.75779 -0.0795,0.75779 0.48055,0.2795 0.48055,0.2795 0.0445,0.008 0.0445,0.008 z m -6.99591,-1.9832 1.3013,0.33351 0.4091,-0.22894 0.40909,-0.22894 -0.4113,-0.58722 -0.41131,-0.58722 -0.78007,-0.40339 -0.78008,-0.4034 -0.50939,0.27262 -0.50938,0.27261 h -0.25112 -0.25112 l -0.13838,-0.52917 -0.13838,-0.52916 h -0.38146 -0.38146 l -0.47083,1.0441 -0.47082,1.04411 0.14988,0.39058 0.14988,0.39058 0.61149,0.0994 0.61149,0.0994 0.47078,-0.39152 0.47078,-0.39153 z m -0.0405,-2.96879 0.0917,-0.4763 -0.55171,0.34455 -0.55171,0.34454 v 0.22034 0.22034 l 0.45998,-0.0886 0.45998,-0.0886 z m -7.1853,-8.29297 -0.17639,-0.17639 -0.17639,0.17639 -0.17639,0.17639 h 0.35278 0.35277 z m 2.46944,-3.52777 -0.39687,-0.25648 0.59531,-0.004 0.59531,-0.004 v -0.26458 -0.26458 l -0.33073,-0.004 -0.33073,-0.004 -0.60483,-0.16203 -0.60484,-0.16203 0.31658,0.69481 0.31657,0.69481 0.42055,-0.004 0.42056,-0.004 z m 7.78088,-4.10105 -0.43341,-0.66145 h -0.11747 -0.11748 l 0.1891,0.33072 0.1891,0.33073 0.25579,0.33073 0.25578,0.33073 h 0.106 0.10599 z m 10.04602,56.34547 0.18974,-0.49446 0.16424,-1.19821 0.16423,-1.19822 -0.54676,0.3925 -0.54675,0.39251 -1.15132,0.80807 -1.15132,0.80807 1.63771,-2.47998 1.63772,-2.47998 1.24392,-2.50645 1.24391,-2.50644 0.491,-0.34391 0.491,-0.34391 0.28119,-0.80664 0.2812,-0.80665 0.49056,0.12828 0.49056,0.12829 -0.0893,1.76104 -0.0894,1.76104 -0.53679,1.80748 -0.5368,1.80749 -0.65487,1.11745 -0.65486,1.11744 -1.2297,1.63586 -1.22969,1.63585 -0.28958,0.17897 -0.28958,0.17897 z m -10.24038,-1.61902 -0.17819,-0.17818 v -0.69674 -0.69674 l 0.32606,-0.32606 0.32607,-0.32606 0.26925,-1.11384 0.26925,-1.11384 0.7325,-0.34959 0.7325,-0.34959 0.42241,-0.64468 0.42241,-0.64467 h 0.23415 0.23415 v 0.74965 0.74966 l -0.19843,0.189 -0.19844,0.18901 -1.05833,2.01088 -1.05834,2.01088 -0.54942,0.35955 -0.54941,0.35955 z m 17.35046,-10.84855 -0.33073,-0.13345 0.0209,-0.44098 0.0209,-0.44097 0.13713,0.34177 0.13713,0.34178 0.35033,-0.29075 0.35033,-0.29075 -0.14233,0.54429 -0.14234,0.54429 -0.0353,-0.0209 -0.0353,-0.0209 z m -0.8599,-0.22165 v -0.13229 h 0.13229 0.1323 v 0.13229 0.13229 h -0.1323 -0.13229 z m -1.64554,-2.13061 -0.13199,-0.13199 0.40758,-1.51453 0.40758,-1.51453 0.0964,-0.12228 0.0963,-0.12228 0.51713,0.32296 0.51714,0.32295 v -0.39911 -0.39912 h 0.26458 0.26458 l -0.0201,0.19844 -0.0201,0.19844 -0.31061,0.79375 -0.3106,0.79375 h -0.39687 -0.39688 l -0.42605,0.85276 -0.42605,0.85277 z m 3.1349,-1.01131 0.0981,-0.76068 v -0.24713 -0.24712 l 0.26459,0.16352 0.26458,0.16352 -0.008,-0.34634 -0.008,-0.34635 -0.38846,-0.51359 -0.38846,-0.51359 0.008,-0.28016 0.008,-0.28016 0.26969,0.46302 0.26968,0.46302 h 0.25144 0.25143 l 0.0209,-0.59531 0.0209,-0.59531 0.1385,0.34588 0.13851,0.34588 -0.32646,1.73014 -0.32645,1.73014 -0.20302,-0.32849 -0.20301,-0.32848 -0.12494,0.36913 -0.12493,0.36913 z m -0.83878,-0.44756 -0.1744,-0.28218 0.1261,-0.1261 0.1261,-0.1261 0.15667,0.40828 0.15668,0.40829 h -0.10837 -0.10838 z m -68.25162,-3.6324 -0.52916,-0.10552 -0.23435,-0.2219 -0.23434,-0.22189 0.41388,-0.41388 0.41388,-0.41389 h 0.49515 0.49515 l 0.3175,0.3175 0.3175,0.3175 v 0.3131 0.3131 l -0.46302,0.11071 -0.46302,0.1107 z m 2.33716,0.034 0.17638,-0.17639 0.17639,0.17639 0.17639,0.17638 h -0.35278 -0.35277 z m 67.9306,-0.24254 0.0209,-0.50712 0.13897,0.34727 0.13896,0.34726 -0.15985,0.15986 -0.15985,0.15985 z m -71.98755,-0.24253 v -0.1323 h 0.13229 0.1323 v 0.1323 0.13229 h -0.1323 -0.13229 z m 72.25214,-0.8158 0.0209,-0.50712 0.13896,0.34726 0.13896,0.34727 -0.15985,0.15985 -0.15985,0.15986 z m -73.29831,-1.06757 -0.91388,-0.92503 -0.60042,0.1507 -0.60043,0.1507 0.15355,-0.40015 0.15355,-0.40015 h 0.57962 0.57962 l 1.36866,0.99219 1.36865,0.99219 0.008,0.19844 0.008,0.19843 -0.59532,-0.0161 -0.59531,-0.0162 z m 17.98192,-24.83664 -0.32696,-0.39396 -0.21072,0.13024 -0.21073,0.13024 -0.39632,-0.15208 -0.39631,-0.15208 -0.54677,-1.271 -0.54677,-1.271 0.0838,-1.40049 0.0838,-1.4005 0.76928,-0.61555 0.76928,-0.61556 -0.46302,-0.001 -0.46302,-10e-4 v -0.36448 -0.36447 l 0.39396,-0.32696 0.39396,-0.32696 -0.15215,-0.2462 -0.15216,-0.24619 0.31014,-0.3737 0.31014,-0.37369 -0.17068,-0.27617 -0.17069,-0.27618 h 0.24936 0.24935 l 0.11571,-0.6053 0.11571,-0.60529 -0.10691,-0.32075 -0.10692,-0.32074 h -0.50712 -0.50712 v -0.11984 -0.11985 l 0.30052,-0.65955 0.30051,-0.65956 1.03599,-0.41452 1.03598,-0.41451 -0.17895,-0.28954 -0.17894,-0.28954 -0.16537,0.25591 -0.16536,0.25591 -0.92604,0.49695 -0.92604,0.49694 -0.31538,0.006 -0.31538,0.006 -1.09714,0.65821 -1.09714,0.6582 -0.64467,0.56569 -0.64468,0.56569 -1.09378,-0.24576 -1.09378,-0.24576 -0.27538,0.27538 -0.27538,0.27538 h 0.69273 0.69274 l 0.42994,0.16498 0.42993,0.16499 -0.41475,0.45829 -0.41475,0.45829 -1.18417,-0.27097 -1.18417,-0.27098 v -0.31129 -0.31129 l 0.55301,-0.50047 0.55301,-0.50047 0.30689,-0.004 0.30688,-0.004 0.8599,-0.39532 0.85989,-0.39531 v -0.2116 -0.21159 l -0.33073,0.0429 -0.33073,0.0429 -0.32505,-0.0313 -0.32506,-0.0313 0.28146,-0.61773 0.28145,-0.61773 0.74588,-0.44061 0.74589,-0.4406 h 0.334 0.334 l -0.17409,0.17409 -0.17409,0.1741 0.29468,0.35507 0.29469,0.35507 0.43062,-0.004 0.43062,-0.004 -0.39687,-0.25648 -0.39688,-0.25648 0.26459,-0.008 0.26458,-0.008 -0.39688,-0.26053 -0.39687,-0.26053 0.39687,-0.26894 0.39688,-0.26895 0.8457,0.0626 0.84571,0.0626 0.19058,-0.19058 0.19058,-0.19058 0.68351,-0.001 0.6835,-0.001 1.19063,0.4259 1.19062,0.4259 1.71979,-0.79899 1.7198,-0.79899 0.29711,0.37899 0.29711,0.379 0.41765,-0.16027 0.41765,-0.16026 -0.14532,0.89554 -0.14533,0.89555 0.42275,0.35086 0.42275,0.35085 v 0.36448 0.36448 h 0.23117 0.23116 l -0.18163,0.85989 -0.18163,0.8599 0.5154,0.70867 0.51539,0.70868 -0.51546,1.01111 -0.51546,1.01112 -0.97551,0.48481 -0.97551,0.48481 v 0.32559 0.32558 l -0.72761,0.66277 -0.7276,0.66277 -0.7276,0.45116 -0.72761,0.45117 v 0.43609 0.43608 l -0.43293,0.47839 -0.43293,0.47838 -0.0894,0.9962 -0.0894,0.99621 -0.45429,0.33218 -0.45429,0.33219 h -0.31391 -0.31391 z m -0.53158,-8.46958 v -0.13229 h -0.13229 -0.1323 v 0.13229 0.1323 h 0.1323 0.13229 z m -4.23334,-5.02708 v -0.13229 h -0.13229 -0.13229 v 0.13229 0.13229 h 0.13229 0.13229 z m 12.17084,0 v -0.13229 h -0.13229 -0.1323 v 0.13229 0.13229 h 0.1323 0.13229 z m -1.03543,9.20503 -0.32662,-0.71685 0.47953,-0.35064 0.47954,-0.35065 0.0811,0.2432 0.0811,0.2432 0.98032,-0.22302 0.98032,-0.22303 0.52917,0.53427 0.52916,0.53427 -0.62462,0.51305 -0.62463,0.51305 h -1.11884 -1.11884 z m 23.91922,-5.90205 -0.16619,-0.2689 -0.20761,0.12831 -0.20761,0.12831 -0.28654,-0.62888 -0.28653,-0.62887 -0.29155,-1.08271 -0.29154,-1.08271 0.53939,-0.57897 0.53939,-0.57896 0.0292,0.11603 0.0292,0.11604 0.0546,1.55946 0.0546,1.55947 0.70993,0.61065 0.70993,0.61066 v 0.14498 0.14499 h -0.38126 -0.38126 z m -41.05185,-1.21208 v -0.42264 l 0.61848,-0.28179 0.61848,-0.2818 0.19732,0.19804 0.19732,0.19805 -0.62462,0.50639 -0.62463,0.50639 h -0.19117 -0.19118 z m -2.55034,-0.32091 0.15484,-0.44707 0.41048,-0.33073 0.41047,-0.33073 -0.51359,-0.008 -0.51359,-0.008 0.51359,-0.38846 0.51359,-0.38846 0.54474,0.008 0.54474,0.008 -0.4065,0.32231 -0.40651,0.32232 0.099,0.48299 0.099,0.48299 0.48752,-0.4412 0.48752,-0.4412 -0.14583,0.55764 -0.14583,0.55765 -0.29879,0.188 -0.29879,0.188 -0.84548,0.0565 -0.84547,0.0565 z m 4.31423,-0.31478 v -0.26458 h 0.26458 0.26459 v 0.26458 0.26458 h -0.26459 -0.26458 z m 0.17561,-1.17316 -0.17409,-0.45366 0.37722,-0.37721 0.37721,-0.37722 h 0.15119 0.15119 v 0.3463 0.34631 l -0.35432,0.48457 -0.35432,0.48456 z m 0.88272,-0.002 v -0.41249 h 0.26459 0.26458 v 0.24897 0.24897 l -0.26458,0.16352 -0.26459,0.16352 z m 25.07316,-0.81702 -0.9883,-0.91839 0.0623,-0.0217 0.0623,-0.0218 0.78879,-0.12778 0.7888,-0.12778 0.16595,-0.26853 0.16596,-0.26852 0.74464,0.0873 0.74463,0.0873 0.11443,0.34821 0.11443,0.34821 -0.54207,0.14176 -0.54207,0.14175 -0.0811,0.68026 -0.0811,0.68026 -0.26458,0.0789 -0.26459,0.0789 z m -27.98357,0.56513 v -0.10399 l 0.39687,-0.15229 0.39688,-0.1523 v 0.25628 0.25628 h -0.39688 -0.39687 z"
       id="path3" /><g
       id="g28"
       style="display:inline;opacity:0.5;fill:none;fill-opacity:1;stroke:#05b9f6;stroke-width:0.2;stroke-dasharray:none;stroke-opacity:1"><path
         style="fill:none;fill-opacity:1;stroke:#05b9f6;stroke-width:0.2;stroke-dasharray:none;stroke-opacity:1"
         d="m 272.86881,272.58819 c 2.64889,-0.0869 5.26096,-0.0142 7.39002,2.15152"
         id="path7" /><path
         style="fill:none;fill-opacity:1;stroke:#05b9f6;stroke-width:0.2;stroke-dasharray:none;stroke-opacity:1"
         d="m 269.61041,269.77578 -1.71979,-1.9513"
         id="path9" /><path
         style="fill:none;fill-opacity:1;stroke:#05b9f6;stroke-width:0.2;stroke-dasharray:none;stroke-opacity:1"
         d="m 272.78541,270.43724 c 3.86067,-3.11822 7.24291,-4.16324 10.58334,-5.02709"
         id="path10" /><path
         style="fill:none;fill-opacity:1;stroke:#05b9f6;stroke-width:0.2;stroke-dasharray:none;stroke-opacity:1"
         d="m 268.2875,264.41797 14.78359,-0.82683"
         id="path11" /><path
         style="fill:none;fill-opacity:1;stroke:#05b9f6;stroke-width:0.2;stroke-dasharray:none;stroke-opacity:1"
         d="m 292.79453,282.54192 6.54843,-2.18281"
         id="path13" /><path
         style="fill:none;fill-opacity:1;stroke:#05b9f6;stroke-width:0.2;stroke-dasharray:none;stroke-opacity:1"
         d="m 291.57083,281.58281 c 3.7306,-2.88458 6.27891,-5.73979 13.7914,-6.21771"
         id="path14" /><path
         style="fill:none;fill-opacity:1;stroke:#05b9f6;stroke-width:0.2;stroke-dasharray:none;stroke-opacity:1"
         d="m 302.61718,307.975 c 4.73794,-5.48966 5.31336,-12.09139 5.82083,-18.71927"
         id="path15" /><path
         style="fill:none;fill-opacity:1;stroke:#05b9f6;stroke-width:0.2;stroke-dasharray:none;stroke-opacity:1"
         d="m 287.46979,303.01406 c -0.87497,3.56143 -2.19521,6.94476 -5.68854,9.45885"
         id="path16" /><path
         style="fill:none;fill-opacity:1;stroke:#05b9f6;stroke-width:0.2;stroke-dasharray:none;stroke-opacity:1"
         d="m 279.26771,312.53906 c -1.41166,-6.04964 -1.41664,-14.76031 -6.08542,-16.73489"
         id="path17" /><path
         style="fill:none;fill-opacity:1;stroke:#05b9f6;stroke-width:0.2;stroke-dasharray:none;stroke-opacity:1"
         d="m 271.85937,293.95208 c -1.77724,-4.88454 -1.08098,-8.94458 -0.26458,-12.96458"
         id="path18" /><path
         style="fill:none;fill-opacity:1;stroke:#05b9f6;stroke-width:0.2;stroke-dasharray:none;stroke-opacity:1"
         d="m 308.23992,284.46833 c 0.41438,-2.74436 -0.13267,-4.80576 -0.77433,-7.72613"
         id="path19" /><path
         style="fill:none;fill-opacity:1;stroke:#05b9f6;stroke-width:0.2;stroke-dasharray:none;stroke-opacity:1"
         d="m 248.26666,313.42028 c -1.53902,0.11741 -2.80706,0.46709 -5.51911,-0.42095"
         id="path20" /><path
         style="fill:none;fill-opacity:1;stroke:#05b9f6;stroke-width:0.2;stroke-dasharray:none;stroke-opacity:1"
         d="m 239.89444,311.36232 c -3.85752,-4.96986 -3.08138,-5.54993 -3.88209,-7.62386"
         id="path21" /><path
         style="fill:none;fill-opacity:1;stroke:#05b9f6;stroke-width:0.2;stroke-dasharray:none;stroke-opacity:1"
         d="m 228.43526,288.06978 c -2.73494,-3.81686 -2.39796,-5.32978 -3.22728,-7.71742"
         id="path22" /><path
         style="fill:none;fill-opacity:1;stroke:#05b9f6;stroke-width:0.2;stroke-dasharray:none;stroke-opacity:1"
         d="m 229.90595,288.17604 c 1.74516,-3.72912 4.09853,-6.95266 8.13503,-9.44798"
         id="path23" /><path
         style="fill:none;fill-opacity:1;stroke:#05b9f6;stroke-width:0.2;stroke-dasharray:none;stroke-opacity:1"
         d="m 238.58482,274.92679 c -0.95169,-3.28546 -0.20293,-5.59316 -7.83641,-12.72065"
         id="path24" /><path
         style="fill:none;fill-opacity:1;stroke:#05b9f6;stroke-width:0.2;stroke-dasharray:none;stroke-opacity:1"
         d="m 223.99191,276.23643 c -0.75631,-5.64782 1.48156,-9.79856 4.20949,-13.70426"
         id="path25" /><path
         style="fill:none;fill-opacity:1;stroke:#05b9f6;stroke-width:0.2;stroke-dasharray:none;stroke-opacity:1"
         d="m 241.76302,275.96041 c 5.99199,-5.66331 14.42093,-7.6712 22.82031,-9.72343"
         id="path27" /><path
         style="display:inline;fill:none;fill-opacity:1;stroke:#05b9f6;stroke-width:0.2;stroke-dasharray:none;stroke-opacity:1"
         d="m 230.1875,258.29948 c 10.08045,-4.15904 17.76628,-0.57869 24.60625,2.38125"
         id="path28" /></g><g
       id="g6"
       style="display:inline;opacity:0.5;mix-blend-mode:hard-light;fill:none;fill-opacity:1;stroke:#05b9f6;stroke-width:0.5;stroke-dasharray:none;stroke-opacity:1"><ellipse
         style="fill:#ffffff;fill-opacity:1;stroke:#ffffff;stroke-width:0.5;stroke-dasharray:none;stroke-opacity:1"
         id="path2"
         ry="1.7117817"
         rx="1.6601053"
         cy="289.73398"
         cx="229.14793" /><ellipse
         style="fill:#ffffff;fill-opacity:1;stroke:#ffffff;stroke-width:0.5;stroke-dasharray:none;stroke-opacity:1"
         id="path2-3"
         ry="2.2781634"
         rx="2.2812984"
         cy="278.31274"
         cx="224.83397" /><ellipse
         style="fill:#ffffff;fill-opacity:1;stroke:#ffffff;stroke-width:0.5;stroke-dasharray:none;stroke-opacity:1"
         id="path2-3-5"
         ry="2.2781634"
         rx="2.2812984"
         cy="277.04904"
         cx="239.68919" /><ellipse
         style="fill:#ffffff;fill-opacity:1;stroke:#ffffff;stroke-width:0.5;stroke-dasharray:none;stroke-opacity:1"
         id="path2-3-4"
         ry="2.4608672"
         rx="2.4640021"
         cy="271.83398"
         cx="270.78842" /><ellipse
         style="fill:#ffffff;fill-opacity:1;stroke:#ffffff;stroke-width:0.5;stroke-dasharray:none;stroke-opacity:1"
         id="path2-3-52"
         ry="2.2781634"
         rx="2.2812984"
         cy="265.92429"
         cx="266.67886" /><ellipse
         style="fill:#ffffff;fill-opacity:1;stroke:#ffffff;stroke-width:0.5;stroke-dasharray:none;stroke-opacity:1"
         id="path2-3-45"
         ry="2.3556781"
         rx="2.3458939"
         cy="260.52063"
         cx="229.21455" /><ellipse
         style="fill:#ffffff;fill-opacity:1;stroke:#ffffff;stroke-width:0.5;stroke-dasharray:none;stroke-opacity:1"
         id="path2-3-2"
         ry="1.5934507"
         rx="1.5956434"
         cy="295.36209"
         cx="271.89212" /><ellipse
         style="fill:#ffffff;fill-opacity:1;stroke:#ffffff;stroke-width:0.5;stroke-dasharray:none;stroke-opacity:1"
         id="path2-3-1"
         ry="1.6304563"
         rx="1.6327"
         cy="279.25809"
         cx="271.61554" /><ellipse
         style="fill:#ffffff;fill-opacity:1;stroke:#ffffff;stroke-width:0.5;stroke-dasharray:none;stroke-opacity:1"
         id="path2-3-7"
         ry="1.7495452"
         rx="1.7519528"
         cy="279.79254"
         cx="300.86694" /><ellipse
         style="fill:#ffffff;fill-opacity:1;stroke:#ffffff;stroke-width:0.5;stroke-dasharray:none;stroke-opacity:1"
         id="path2-3-42"
         ry="2.0477428"
         rx="2.0685091"
         cy="264.16022"
         cx="285.09821" /><ellipse
         style="fill:#05b9f6;fill-opacity:1;stroke:#05b9f6;stroke-width:0.312882;stroke-dasharray:none;stroke-opacity:1"
         id="path2-3-42-6"
         ry="1.2814058"
         rx="1.2944006"
         cy="260.72952"
         cx="256.12006" /><ellipse
         style="fill:#05b9f6;fill-opacity:1;stroke:#05b9f6;stroke-width:0.5;stroke-dasharray:none;stroke-opacity:1"
         id="path2-3-9"
         ry="2.2781634"
         rx="2.2812984"
         cy="286.74768"
         cx="308.51874" /><ellipse
         style="fill:#05b9f6;fill-opacity:1;stroke:#05b9f6;stroke-width:0.5;stroke-dasharray:none;stroke-opacity:1"
         id="path2-3-9-8"
         ry="2.2781634"
         rx="2.2812984"
         cy="275.01773"
         cx="282.42462" /><ellipse
         style="fill:#05b9f6;fill-opacity:1;stroke:#05b9f6;stroke-width:0.5;stroke-dasharray:none;stroke-opacity:1"
         id="path2-3-9-3"
         ry="1.9164284"
         rx="1.9190656"
         cy="283.20023"
         cx="291.03012" /><ellipse
         style="fill:#05b9f6;fill-opacity:1;stroke:#05b9f6;stroke-width:0.5;stroke-dasharray:none;stroke-opacity:1"
         id="path2-3-9-7"
         ry="1.7363065"
         rx="1.7386959"
         cy="309.03922"
         cx="301.76831" /><ellipse
         style="fill:#05b9f6;fill-opacity:1;stroke:#05b9f6;stroke-width:0.5;stroke-dasharray:none;stroke-opacity:1"
         id="path2-3-9-85"
         ry="1.515936"
         rx="1.5180222"
         cy="275.21503"
         cx="306.87543" /><ellipse
         style="fill:#05b9f6;fill-opacity:1;stroke:#05b9f6;stroke-width:0.5;stroke-dasharray:none;stroke-opacity:1"
         id="path2-3-9-72"
         ry="2.2781634"
         rx="2.2812984"
         cy="314.03049"
         cx="250.5023" /><ellipse
         style="fill:#05b9f6;fill-opacity:1;stroke:#05b9f6;stroke-width:0.5;stroke-dasharray:none;stroke-opacity:1"
         id="path2-3-9-2"
         ry="1.8269957"
         rx="1.82951"
         cy="301.43289"
         cx="287.91113" /><ellipse
         style="fill:#05b9f6;fill-opacity:1;stroke:#05b9f6;stroke-width:0.5;stroke-dasharray:none;stroke-opacity:1"
         id="path2-3-9-9"
         ry="2.2416227"
         rx="2.2447073"
         cy="314.3681"
         cx="280.11768" /><ellipse
         style="fill:#05b9f6;fill-opacity:1;stroke:#05b9f6;stroke-width:0.5;stroke-dasharray:none;stroke-opacity:1"
         id="path2-3-9-23"
         ry="1.4778534"
         rx="1.479887"
         cy="302.40695"
         cx="235.48708" /><ellipse
         style="fill:#05b9f6;fill-opacity:1;stroke:#05b9f6;stroke-width:0.5;stroke-dasharray:none;stroke-opacity:1"
         id="path2-3-9-96"
         ry="1.735845"
         rx="1.7382337"
         cy="312.73297"
         cx="241.05133" /></g></g><path
     d="m 521.12889,328.42771 c 10.67661,-7.27362 16.63918,-18.75541 36.61009,-70.49797 22.6416,-58.66185 21.8176,-53.8198 8.99699,-52.87152 l -10.70766,0.79211 -7.32787,20.32369 c -18.22753,50.55407 -15.14505,49.67186 -31.06806,8.89161 l -11.40733,-29.2153 -10.34004,-0.78152 c -14.4807,-1.09403 -13.21989,4.30081 16.60034,71.03226 11.7221,26.23151 6.43376,40.2017 -13.69429,36.17609 -6.67381,-1.33473 -7.7997,-0.62 -10.29187,6.5285 -4.80781,13.79171 17.04871,20.23672 32.62969,9.62181 z M 218.18587,291.77343 c 38.92855,-31.34935 19.36334,-89.50243 -29.14596,-86.62926 -50.272,2.97756 -62.11452,71.3174 -15.95421,92.06742 13.9581,6.2744 33.47879,3.92073 45.10017,-5.43816 z m -41.66239,-14.68892 c -13.87353,-9.7174 -14.43654,-35.75715 -1.0322,-47.73496 26.25152,-23.45769 58.25961,18.69768 33.75653,44.45818 -7.64486,8.03718 -23.64105,9.63892 -32.72433,3.27678 z m 282.92911,19.04421 c 34.96965,-15.87439 27.28966,-55.46923 -13.28485,-68.49178 -25.39008,-8.14897 -31.18279,-14.96799 -24.04513,-28.30489 3.6137,-6.7522 21.0409,-6.56437 33.97158,0.36537 10.36622,5.55589 10.35834,5.55866 16.95096,-5.96759 8.16035,-14.26734 -34.73541,-25.89127 -56.04221,-15.1863 -32.77006,16.4642 -25.8729,54.44435 12.1314,66.80401 23.49482,7.64092 28.46546,11.1538 28.46546,20.11743 0,16.15661 -20.56673,20.00489 -42.44483,7.94189 l -13.22938,-7.29434 -3.91874,5.98074 c -5.96002,9.09619 -4.84697,12.32367 6.4372,18.66564 20.36831,11.4476 37.85769,13.1547 55.00855,5.36913 z M 759.85277,292.569 c 11.77373,-7.79147 12.08364,-8.8213 4.95803,-16.46952 l -5.26616,-5.6527 -8.37111,5.17361 c -20.26719,12.5258 -42.06758,1.39805 -42.06758,-21.47284 0,-26.9106 19.09818,-39.48211 40.3226,-26.54243 l 8.56674,5.22275 5.94277,-5.58289 c 7.42717,-6.97743 5.0395,-12.57537 -8.00414,-18.76495 -39.61949,-18.80062 -83.21287,23.81609 -64.87583,63.42226 12.90726,27.87838 43.85049,37.17406 68.79468,20.66671 z m -729.591073,-18.76127 0.73068,-23.49939 h 25.0376 c 26.85505,0 28.12154,-0.63851 28.12154,-14.18028 0,-5.88808 -0.71244,-6.14456 -17.14808,-6.17134 -9.43156,-0.0201 -21.43525,-0.73642 -26.67495,-1.60256 l -9.52674,-1.57475 v -16.18066 -16.18063 h 30.48557 30.48557 v -10.38039 -10.38042 l -34.88539,0.74509 c -19.18701,0.41023 -38.04998,1.2094 -41.917662,1.77722 l -7.0323347,1.03208 v 60.82886 60.82889 l 10.7970067,-0.78153 10.79703,-0.78066 z m 97.077473,-39.96397 v -64.73348 l -6.34551,-1.59266 c -14.11561,-3.54271 -13.97822,-4.19344 -13.97822,66.19803 v 64.86158 h 10.16188 10.16185 z m 175.18659,38.69372 c 12.93956,-42.5957 10.70132,-43.27665 25.50598,7.76012 l 5.38308,18.5573 10.64808,-0.77391 10.64803,-0.77393 14.41737,-43.18793 c 17.34925,-51.9703 17.06201,-49.53918 5.85191,-49.53918 -10.40611,0 -10.13055,-0.47824 -21.70451,37.64448 -9.38511,30.91221 -8.82452,31.09886 -20.15872,-6.71193 l -8.89159,-29.66222 -9.19745,-0.76912 c -10.60662,-0.88622 -12.34435,2.11432 -22.51142,38.87593 -8.49568,30.71789 -7.22044,31.88045 -22.99005,-20.95891 l -5.49696,-18.41841 h -9.91449 c -12.54883,0 -12.69169,-1.77317 3.83475,47.60148 16.54509,49.43028 14.78904,46.39582 26.85097,46.39582 h 9.81473 z m 307.50199,-4.64131 c 0,-34.14166 5.38226,-45.53286 21.51398,-45.53286 15.25109,0 19.1335,8.99756 19.1335,44.34263 v 31.87129 h 10.16188 10.16185 v -35.69267 c 0,-38.11872 -2.04078,-46.4863 -13.25317,-54.33961 -9.34984,-6.549 -30.57402,-5.23665 -39.71595,2.4557 l -7.63054,6.42068 -0.82092,-5.78554 c -0.66248,-4.66999 -2.65784,-5.93762 -10.34774,-6.57405 l -9.52674,-0.78829 v 47.15196 47.15202 h 10.16194 10.16183 z"
     style="display:inline;fill:#000000;fill-opacity:1;stroke:none;stroke-width:9.60174;stroke-opacity:1"
     id="path1-2" /></svg>
